<?xml version="1.0" encoding="UTF-8"?>
<svg id="svg1" xmlns="http://www.w3.org/2000/svg" viewBox="0 0 97.1 137.19">
  <defs>
    <style>
      .cls-1 {
        fill: #b19aca;
      }

      .cls-2 {
        fill: #6c3f99;
      }

      .cls-3 {
        fill: #f9f9f9;
      }

      .cls-4 {
        fill: #5f9e45;
      }

      .cls-5 {
        fill: #00aeef;
        stroke: rgba(0, 174, 239, .31);
        stroke-miterlimit: 2.83;
        stroke-width: 2.61px;
      }

      .cls-5, .cls-6, .cls-7 {
        stroke-linecap: round;
      }

      .cls-8 {
        fill: #a6ce39;
      }

      .cls-9 {
        fill: #fff;
        isolation: isolate;
        opacity: .08;
      }

      .cls-6 {
        stroke: #fff;
      }

      .cls-6, .cls-7 {
        fill: none;
        stroke-linejoin: round;
        stroke-width: .75px;
      }

      .cls-10 {
        fill: #44166e;
      }

      .cls-7 {
        stroke: #b19aca;
      }

      .cls-11 {
        fill: #2c004b;
      }
    </style>
  </defs>
  <ellipse id="ellipse74-1-2" class="cls-4" cx="49.86" cy="109.82" rx="23.2" ry="46.6" transform="translate(-70.54 116.86) rotate(-68.93)"/>
  <g id="g703">
    <path id="path799" class="cls-11" d="M12.9,93.5l32.4,3.8,32.3,33.6,6.6-3.8-32.4-33.6-32.4-3.7-6.5,3.7Z"/>
    <path id="path666" class="cls-10" d="M97.1,119.7V52.4L6.5.1,0,3.9v67.3l90.6,52.3,6.5-3.8Z"/>
    <path id="path31-8" class="cls-1" d="M6.5,0l90.6,52.3-6.5,3.8L0,3.8,6.5,0Z"/>
    <path id="path111-0" class="cls-3" d="M40.8,65.5v-15.9c0-.5.4-1,1-1,.3,0,.6.1.8.4l11.1,14.5c.6.8.4,1.8-.3,2.4-.2.2-.5.3-.7.3l-9,1.6c-1.3.2-2.5-.6-2.8-1.9-.1-.2-.1-.3-.1-.4h0Z"/>
    <path id="path704" class="cls-2" d="M97.1,119.7V52.4l-6.5,3.8v67.3l6.5-3.8Z"/>
    <path id="path705" class="cls-11" d="M90.6,115.9l6.5-3.7v7.5l-6.5,3.7v-7.5Z"/>
    <path id="path706" class="cls-11" d="M90.6,115.9L0,63.6v7.5l90.6,52.3s0-7.5,0-7.5Z"/>
    <path id="path76-9-8" class="cls-8" d="M13,68.1c1.6.9,2.9,3,2.9,4.6h0c0,1.6-1.4,2.2-3,1.3s-2.9-3-2.9-4.6c.1-1.6,1.4-2.2,3-1.3h0Z"/>
    <path id="path707" class="cls-5" d="M22.4,73.5c1.6.9,2.9,3,2.9,4.6h0c0,1.6-1.4,2.2-3,1.3s-2.9-3-2.9-4.6,1.4-2.2,3-1.3h0Z"/>
    <path id="path708" class="cls-6" d="M84.1,59.9L6.4,15v44.9l77.7,44.8v-44.8Z"/>
    <path id="path709" class="cls-7" d="M84.1,59.9L6.4,15v44.9l77.7,44.8v-44.8Z"/>
    <path id="path795" class="cls-9" d="M90.6,56.1l-19.5-11.3L12.3,78.1l78.3,45.2V56.1Z"/>
  </g>
</svg>